<?xml version="1.0" ?><!DOCTYPE svg  PUBLIC '-//W3C//DTD SVG 1.1//EN'  'http://www.w3.org/Graphics/SVG/1.1/DTD/svg11.dtd'><svg height="6.82666in" style="shape-rendering:geometricPrecision; text-rendering:geometricPrecision; image-rendering:optimizeQuality; fill-rule:evenodd; clip-rule:evenodd" viewBox="0 0 6.82666 6.82666" width="6.82666in" xml:space="preserve" xmlns="http://www.w3.org/2000/svg" xmlns:xlink="http://www.w3.org/1999/xlink"><defs><style type="text/css">
   <![CDATA[
    .fil0 {fill:#354291}
    .fil1 {fill:#F4F4F4}
   ]]>
  </style></defs><g id="Layer_x0020_1"><rect class="fil0" height="6.82667" rx="1.45635" ry="1.45635" width="6.82667"/><path class="fil1" d="M3.62623 2.28306l0 -0.869732 -0.56137 0c-0.15872,0.398043 -0.188213,0.912331 -0.785185,0.869732l0 0.701213 0.412319 0c0.00679134,0.986402 0.00679134,1.49505 0.00679134,1.52071 0,0.427677 0.266354,0.744303 0.676303,0.843776 0.160685,0.0445039 0.334252,0.0645669 0.508724,0.0645669 0.224882,-0.00707874 0.444201,-0.0456693 0.663173,-0.115858l0 -0.825165c-0.127984,0.0388976 -0.244661,0.0712913 -0.347835,0.103094 -0.199197,0.0583661 -0.366937,0.0197756 -0.502713,-0.109004 -0.0682874,-0.103996 -0.0696181,-0.264906 -0.0696181,-0.386713l0 -1.0957 0.894476 0 0 -0.700925 -0.895067 0z"/></g></svg>